<svg width="24" height="24" viewBox="0 0 24 24" fill="none" xmlns="http://www.w3.org/2000/svg">
<path fill-rule="evenodd" clip-rule="evenodd" d="M18.875 22C19.7038 22 20.4987 21.6708 21.0847 21.0847C21.6708 20.4987 22 19.7038 22 18.875C22 18.0462 21.6708 17.2513 21.0847 16.6653C20.4987 16.0792 19.7038 15.75 18.875 15.75C18.0462 15.75 17.2513 16.0792 16.6653 16.6653C16.0792 17.2513 15.75 18.0462 15.75 18.875C15.75 19.7038 16.0792 20.4987 16.6653 21.0847C17.2513 21.6708 18.0462 22 18.875 22ZM18.875 23.25C20.0353 23.25 21.1481 22.7891 21.9686 21.9686C22.7891 21.1481 23.25 20.0353 23.25 18.875C23.25 17.7147 22.7891 16.6019 21.9686 15.7814C21.1481 14.9609 20.0353 14.5 18.875 14.5C17.7147 14.5 16.6019 14.9609 15.7814 15.7814C14.9609 16.6019 14.5 17.7147 14.5 18.875C14.5 20.0353 14.9609 21.1481 15.7814 21.9686C16.6019 22.7891 17.7147 23.25 18.875 23.25Z" fill="white"/>
<path fill-rule="evenodd" clip-rule="evenodd" d="M18.875 16.6875C19.0408 16.6875 19.1997 16.7533 19.3169 16.8706C19.4342 16.9878 19.5 17.1467 19.5 17.3125V18.6163L19.9419 19.0581C20.0557 19.176 20.1187 19.3339 20.1173 19.4978C20.1159 19.6616 20.0501 19.8184 19.9343 19.9343C19.8184 20.0501 19.6616 20.1159 19.4977 20.1173C19.3339 20.1187 19.176 20.0557 19.0581 19.9419L18.25 19.1338V17.3125C18.25 17.1467 18.3158 16.9878 18.4331 16.8706C18.5503 16.7533 18.7092 16.6875 18.875 16.6875ZM5.75 11.375H4.5V12.625H5.75V11.375ZM4.5 10.125C4.16848 10.125 3.85054 10.2567 3.61612 10.4911C3.3817 10.7255 3.25 11.0435 3.25 11.375V12.625C3.25 12.9565 3.3817 13.2745 3.61612 13.5089C3.85054 13.7433 4.16848 13.875 4.5 13.875H5.75C6.08152 13.875 6.39946 13.7433 6.63388 13.5089C6.8683 13.2745 7 12.9565 7 12.625V11.375C7 11.0435 6.8683 10.7255 6.63388 10.4911C6.39946 10.2567 6.08152 10.125 5.75 10.125H4.5ZM10.75 11.375H9.5V12.625H10.75V11.375ZM9.5 10.125C9.16848 10.125 8.85054 10.2567 8.61612 10.4911C8.3817 10.7255 8.25 11.0435 8.25 11.375V12.625C8.25 12.9565 8.3817 13.2745 8.61612 13.5089C8.85054 13.7433 9.16848 13.875 9.5 13.875H10.75C11.0815 13.875 11.3995 13.7433 11.6339 13.5089C11.8683 13.2745 12 12.9565 12 12.625V11.375C12 11.0435 11.8683 10.7255 11.6339 10.4911C11.3995 10.2567 11.0815 10.125 10.75 10.125H9.5ZM15.75 11.375H14.5V12.625H15.75V11.375ZM14.5 10.125C14.1685 10.125 13.8505 10.2567 13.6161 10.4911C13.3817 10.7255 13.25 11.0435 13.25 11.375V12.625C13.25 12.9565 13.3817 13.2745 13.6161 13.5089C13.8505 13.7433 14.1685 13.875 14.5 13.875H15.75C16.0815 13.875 16.3995 13.7433 16.6339 13.5089C16.8683 13.2745 17 12.9565 17 12.625V11.375C17 11.0435 16.8683 10.7255 16.6339 10.4911C16.3995 10.2567 16.0815 10.125 15.75 10.125H14.5ZM5.75 16.375H4.5V17.625H5.75V16.375ZM4.5 15.125C4.16848 15.125 3.85054 15.2567 3.61612 15.4911C3.3817 15.7255 3.25 16.0435 3.25 16.375V17.625C3.25 17.9565 3.3817 18.2745 3.61612 18.5089C3.85054 18.7433 4.16848 18.875 4.5 18.875H5.75C6.08152 18.875 6.39946 18.7433 6.63388 18.5089C6.8683 18.2745 7 17.9565 7 17.625V16.375C7 16.0435 6.8683 15.7255 6.63388 15.4911C6.39946 15.2567 6.08152 15.125 5.75 15.125H4.5ZM10.75 16.375H9.5V17.625H10.75V16.375ZM9.5 15.125C9.16848 15.125 8.85054 15.2567 8.61612 15.4911C8.3817 15.7255 8.25 16.0435 8.25 16.375V17.625C8.25 17.9565 8.3817 18.2745 8.61612 18.5089C8.85054 18.7433 9.16848 18.875 9.5 18.875H10.75C11.0815 18.875 11.3995 18.7433 11.6339 18.5089C11.8683 18.2745 12 17.9565 12 17.625V16.375C12 16.0435 11.8683 15.7255 11.6339 15.4911C11.3995 15.2567 11.0815 15.125 10.75 15.125H9.5Z" fill="white"/>
<path fill-rule="evenodd" clip-rule="evenodd" d="M2 4.5C2 4.33424 2.06585 4.17527 2.18306 4.05806C2.30027 3.94085 2.45924 3.875 2.625 3.875H5.75V2.625H2.625C2.12772 2.625 1.65081 2.82254 1.29917 3.17417C0.947544 3.52581 0.75 4.00272 0.75 4.5V19.5C0.75 19.9973 0.947544 20.4742 1.29917 20.8258C1.65081 21.1775 2.12772 21.375 2.625 21.375H15.2844C15.0178 20.9932 14.8142 20.5712 14.6813 20.125H2.625C2.45924 20.125 2.30027 20.0592 2.18306 19.9419C2.06585 19.8247 2 19.6658 2 19.5V4.5ZM18.25 14.5437C18.6646 14.4844 19.0854 14.4844 19.5 14.5437V4.5C19.5 4.00272 19.3025 3.52581 18.9508 3.17417C18.5992 2.82254 18.1223 2.625 17.625 2.625H15.75V3.875H17.625C17.7908 3.875 17.9497 3.94085 18.0669 4.05806C18.1842 4.17527 18.25 4.33424 18.25 4.5V14.5437ZM7 3.875H13.6019V2.625H7V3.875Z" fill="white"/>
<path fill-rule="evenodd" clip-rule="evenodd" d="M14.5 2.625H7V4.5C7 4.66576 6.93415 4.82473 6.81694 4.94194C6.69973 5.05915 6.54076 5.125 6.375 5.125C6.20924 5.125 6.05027 5.05915 5.93306 4.94194C5.81585 4.82473 5.75 4.66576 5.75 4.5V2.625H2.625C2.29348 2.625 1.97554 2.7567 1.74112 2.99112C1.5067 3.22554 1.375 3.54348 1.375 3.875V7C1.375 7.33152 1.5067 7.64946 1.74112 7.88388C1.97554 8.1183 2.29348 8.25 2.625 8.25H17.625C17.9565 8.25 18.2745 8.1183 18.5089 7.88388C18.7433 7.64946 18.875 7.33152 18.875 7V3.875C18.875 3.54348 18.7433 3.22554 18.5089 2.99112C18.2745 2.7567 17.9565 2.625 17.625 2.625H15.75V4.5C15.75 4.66576 15.6842 4.82473 15.5669 4.94194C15.4497 5.05915 15.2908 5.125 15.125 5.125C14.9592 5.125 14.8003 5.05915 14.6831 4.94194C14.5658 4.82473 14.5 4.66576 14.5 4.5V2.625Z" fill="white"/>
<path fill-rule="evenodd" clip-rule="evenodd" d="M19.5 8.25H2V7H19.5V8.25Z" fill="white"/>
<path d="M4.5 1.375C4.5 1.20924 4.56585 1.05027 4.68306 0.933058C4.80027 0.815848 4.95924 0.75 5.125 0.75C5.29076 0.75 5.44973 0.815848 5.56694 0.933058C5.68415 1.05027 5.75 1.20924 5.75 1.375V3.875C5.75 4.04076 5.68415 4.19973 5.56694 4.31694C5.44973 4.43415 5.29076 4.5 5.125 4.5C4.95924 4.5 4.80027 4.43415 4.68306 4.31694C4.56585 4.19973 4.5 4.04076 4.5 3.875V1.375ZM13.25 1.375C13.25 1.20924 13.3158 1.05027 13.4331 0.933058C13.5503 0.815848 13.7092 0.75 13.875 0.75C14.0408 0.75 14.1997 0.815848 14.3169 0.933058C14.4342 1.05027 14.5 1.20924 14.5 1.375V3.875C14.5 4.04076 14.4342 4.19973 14.3169 4.31694C14.1997 4.43415 14.0408 4.5 13.875 4.5C13.7092 4.5 13.5503 4.43415 13.4331 4.31694C13.3158 4.19973 13.25 4.04076 13.25 3.875V1.375Z" fill="white"/>
</svg>
