<svg width="166" height="51" viewBox="0 0 166 51" fill="none" xmlns="http://www.w3.org/2000/svg">
<g clip-path="url(#clip0_56_65)">
<path d="M169.636 18.3091C102.631 26.1039 65.5363 30.4285 0.999999 51C33.0843 25.7527 43.6613 15.3499 30.0496 -0.50969C77.27 11.7412 108.873 15.1623 169.636 18.3091Z" fill="#3D6AEB"/>
<path d="M44.46 22.4844C44.46 22.252 44.4235 22.0469 44.3506 21.8691C44.2822 21.6868 44.1592 21.5228 43.9814 21.377C43.8083 21.2311 43.5667 21.0921 43.2568 20.96C42.9515 20.8278 42.5641 20.6934 42.0947 20.5566C41.6025 20.4108 41.1582 20.249 40.7617 20.0713C40.3652 19.889 40.0257 19.6816 39.7432 19.4492C39.4606 19.2168 39.2441 18.9502 39.0938 18.6494C38.9434 18.3486 38.8682 18.0046 38.8682 17.6172C38.8682 17.2298 38.9479 16.8721 39.1074 16.5439C39.2669 16.2158 39.4948 15.931 39.791 15.6895C40.0918 15.4434 40.4495 15.252 40.8643 15.1152C41.279 14.9785 41.7415 14.9102 42.252 14.9102C42.9993 14.9102 43.6328 15.0537 44.1523 15.3408C44.6764 15.6234 45.0752 15.9948 45.3486 16.4551C45.6221 16.9108 45.7588 17.3984 45.7588 17.918H44.4463C44.4463 17.5443 44.3665 17.2139 44.207 16.9268C44.0475 16.6351 43.806 16.4072 43.4824 16.2432C43.1589 16.0745 42.7487 15.9902 42.252 15.9902C41.7826 15.9902 41.3952 16.0609 41.0898 16.2021C40.7845 16.3434 40.5566 16.5348 40.4062 16.7764C40.2604 17.0179 40.1875 17.2936 40.1875 17.6035C40.1875 17.8132 40.2308 18.0046 40.3174 18.1777C40.4085 18.3464 40.5475 18.5036 40.7344 18.6494C40.9258 18.7952 41.1673 18.9297 41.459 19.0527C41.7552 19.1758 42.1084 19.2943 42.5186 19.4082C43.0837 19.5677 43.5713 19.7454 43.9814 19.9414C44.3916 20.1374 44.7288 20.3584 44.9932 20.6045C45.262 20.846 45.4603 21.1217 45.5879 21.4316C45.7201 21.737 45.7861 22.0833 45.7861 22.4707C45.7861 22.8763 45.7041 23.2432 45.54 23.5713C45.376 23.8994 45.1413 24.1797 44.8359 24.4121C44.5306 24.6445 44.1637 24.8245 43.7354 24.9521C43.3115 25.0752 42.8376 25.1367 42.3135 25.1367C41.8532 25.1367 41.3997 25.0729 40.9531 24.9453C40.5111 24.8177 40.1077 24.6263 39.7432 24.3711C39.3831 24.1159 39.0938 23.8014 38.875 23.4277C38.6608 23.0495 38.5537 22.612 38.5537 22.1152H39.8662C39.8662 22.457 39.9323 22.751 40.0645 22.9971C40.1966 23.2386 40.3766 23.4391 40.6045 23.5986C40.8369 23.7581 41.099 23.8766 41.3906 23.9541C41.6868 24.027 41.9945 24.0635 42.3135 24.0635C42.7738 24.0635 43.1634 23.9997 43.4824 23.8721C43.8014 23.7445 44.043 23.5622 44.207 23.3252C44.3757 23.0882 44.46 22.8079 44.46 22.4844ZM48.5479 14.5V25H47.2764V14.5H48.5479ZM53.0664 17.6035L49.8398 21.0557L48.0352 22.9287L47.9326 21.582L49.2246 20.0371L51.5215 17.6035H53.0664ZM51.9111 25L49.2725 21.4727L49.9287 20.3447L53.4014 25H51.9111ZM56.4502 24.2344L58.5078 17.6035H59.8613L56.8945 26.1416C56.8262 26.3239 56.735 26.5199 56.6211 26.7295C56.5117 26.9437 56.3704 27.1465 56.1973 27.3379C56.0241 27.5293 55.8145 27.6842 55.5684 27.8027C55.3268 27.9258 55.0374 27.9873 54.7002 27.9873C54.5999 27.9873 54.4723 27.9736 54.3174 27.9463C54.1624 27.9189 54.0531 27.8962 53.9893 27.8779L53.9824 26.8525C54.0189 26.8571 54.0758 26.8617 54.1533 26.8662C54.2354 26.8753 54.2923 26.8799 54.3242 26.8799C54.6113 26.8799 54.8551 26.8411 55.0557 26.7637C55.2562 26.6908 55.4248 26.5654 55.5615 26.3877C55.7028 26.2145 55.8236 25.9753 55.9238 25.6699L56.4502 24.2344ZM54.9395 17.6035L56.8604 23.3457L57.1885 24.6787L56.2793 25.1436L53.5586 17.6035H54.9395ZM64.8652 21.0967H62.2061V20.0234H64.8652C65.3802 20.0234 65.7972 19.9414 66.1162 19.7773C66.4352 19.6133 66.6676 19.3854 66.8135 19.0938C66.9639 18.8021 67.0391 18.4694 67.0391 18.0957C67.0391 17.7539 66.9639 17.4326 66.8135 17.1318C66.6676 16.8311 66.4352 16.5895 66.1162 16.4072C65.7972 16.2204 65.3802 16.127 64.8652 16.127H62.5137V25H61.1943V15.0469H64.8652C65.6172 15.0469 66.2529 15.1768 66.7725 15.4365C67.292 15.6963 67.6862 16.0563 67.9551 16.5166C68.224 16.9723 68.3584 17.4941 68.3584 18.082C68.3584 18.7201 68.224 19.2646 67.9551 19.7158C67.6862 20.167 67.292 20.5111 66.7725 20.748C66.2529 20.9805 65.6172 21.0967 64.8652 21.0967ZM74.1143 23.7354V19.9277C74.1143 19.6361 74.055 19.3831 73.9365 19.1689C73.8226 18.9502 73.6494 18.7816 73.417 18.6631C73.1846 18.5446 72.8975 18.4854 72.5557 18.4854C72.2367 18.4854 71.9564 18.54 71.7148 18.6494C71.4779 18.7588 71.291 18.9023 71.1543 19.0801C71.0221 19.2578 70.9561 19.4492 70.9561 19.6543H69.6914C69.6914 19.39 69.7598 19.1279 69.8965 18.8682C70.0332 18.6084 70.2292 18.3737 70.4844 18.1641C70.7441 17.9499 71.054 17.7812 71.4141 17.6582C71.7786 17.5306 72.1842 17.4668 72.6309 17.4668C73.1686 17.4668 73.6426 17.5579 74.0527 17.7402C74.4674 17.9225 74.791 18.1982 75.0234 18.5674C75.2604 18.932 75.3789 19.39 75.3789 19.9414V23.3867C75.3789 23.6328 75.3994 23.8949 75.4404 24.1729C75.486 24.4508 75.5521 24.6901 75.6387 24.8906V25H74.3193C74.2555 24.8542 74.2054 24.6605 74.1689 24.4189C74.1325 24.1729 74.1143 23.945 74.1143 23.7354ZM74.333 20.5156L74.3467 21.4043H73.0684C72.7083 21.4043 72.387 21.4339 72.1045 21.4932C71.8219 21.5479 71.585 21.6322 71.3936 21.7461C71.2021 21.86 71.0563 22.0036 70.9561 22.1768C70.8558 22.3454 70.8057 22.5436 70.8057 22.7715C70.8057 23.0039 70.8581 23.2158 70.9629 23.4072C71.0677 23.5986 71.2249 23.7513 71.4346 23.8652C71.6488 23.9746 71.9108 24.0293 72.2207 24.0293C72.6081 24.0293 72.9499 23.9473 73.2461 23.7832C73.5423 23.6191 73.777 23.4186 73.9502 23.1816C74.1279 22.9447 74.2236 22.7145 74.2373 22.4912L74.7773 23.0996C74.7454 23.291 74.6589 23.5029 74.5176 23.7354C74.3763 23.9678 74.1872 24.1911 73.9502 24.4053C73.7178 24.6149 73.4398 24.7904 73.1162 24.9316C72.7972 25.0684 72.4372 25.1367 72.0361 25.1367C71.5348 25.1367 71.0951 25.0387 70.7168 24.8428C70.3431 24.6468 70.0514 24.3848 69.8418 24.0566C69.6367 23.724 69.5342 23.3525 69.5342 22.9424C69.5342 22.5459 69.6117 22.1973 69.7666 21.8965C69.9215 21.5911 70.1449 21.3382 70.4365 21.1377C70.7282 20.9326 71.0791 20.7777 71.4893 20.6729C71.8994 20.568 72.3574 20.5156 72.8633 20.5156H74.333ZM78.6328 18.7656V25H77.3682V17.6035H78.5986L78.6328 18.7656ZM80.9434 17.5625L80.9365 18.7383C80.8317 18.7155 80.7314 18.7018 80.6357 18.6973C80.5446 18.6882 80.4398 18.6836 80.3213 18.6836C80.0296 18.6836 79.7721 18.7292 79.5488 18.8203C79.3255 18.9115 79.1364 19.0391 78.9814 19.2031C78.8265 19.3672 78.7035 19.5632 78.6123 19.791C78.5257 20.0143 78.4688 20.2604 78.4414 20.5293L78.0859 20.7344C78.0859 20.2878 78.1292 19.8685 78.2158 19.4766C78.307 19.0846 78.446 18.7383 78.6328 18.4375C78.8197 18.1322 79.0566 17.8952 79.3438 17.7266C79.6354 17.5534 79.9818 17.4668 80.3828 17.4668C80.474 17.4668 80.5788 17.4782 80.6973 17.501C80.8158 17.5192 80.8978 17.5397 80.9434 17.5625ZM86.6377 23.291V17.6035H87.9092V25H86.6992L86.6377 23.291ZM86.877 21.7324L87.4033 21.7188C87.4033 22.2109 87.3509 22.6667 87.2461 23.0859C87.1458 23.5007 86.9818 23.8607 86.7539 24.166C86.526 24.4714 86.2275 24.7106 85.8584 24.8838C85.4893 25.0524 85.0404 25.1367 84.5117 25.1367C84.1517 25.1367 83.8213 25.0843 83.5205 24.9795C83.2243 24.8747 82.9691 24.7129 82.7549 24.4941C82.5407 24.2754 82.3743 23.9906 82.2559 23.6396C82.1419 23.2887 82.085 22.8672 82.085 22.375V17.6035H83.3496V22.3887C83.3496 22.7214 83.3861 22.9971 83.459 23.2158C83.5365 23.43 83.639 23.6009 83.7666 23.7285C83.8988 23.8516 84.0446 23.9382 84.2041 23.9883C84.3682 24.0384 84.5368 24.0635 84.71 24.0635C85.2477 24.0635 85.6738 23.9609 85.9883 23.7559C86.3027 23.5462 86.5283 23.266 86.665 22.915C86.8063 22.5596 86.877 22.1654 86.877 21.7324ZM94.1436 23.0381C94.1436 22.8558 94.1025 22.6872 94.0205 22.5322C93.943 22.3727 93.7812 22.2292 93.5352 22.1016C93.2936 21.9694 92.929 21.8555 92.4414 21.7598C92.0312 21.6732 91.6598 21.5706 91.3271 21.4521C90.999 21.3337 90.7188 21.1901 90.4863 21.0215C90.2585 20.8529 90.083 20.6546 89.96 20.4268C89.8369 20.1989 89.7754 19.9323 89.7754 19.627C89.7754 19.3353 89.8392 19.0596 89.9668 18.7998C90.099 18.54 90.2835 18.3099 90.5205 18.1094C90.762 17.9089 91.0514 17.7516 91.3887 17.6377C91.7259 17.5238 92.1019 17.4668 92.5166 17.4668C93.109 17.4668 93.6149 17.5716 94.0342 17.7812C94.4535 17.9909 94.7747 18.2712 94.998 18.6221C95.2214 18.9684 95.333 19.3535 95.333 19.7773H94.0684C94.0684 19.5723 94.0068 19.374 93.8838 19.1826C93.7653 18.9867 93.5898 18.8249 93.3574 18.6973C93.1296 18.5697 92.8493 18.5059 92.5166 18.5059C92.1657 18.5059 91.8809 18.5605 91.6621 18.6699C91.4479 18.7747 91.2907 18.9092 91.1904 19.0732C91.0947 19.2373 91.0469 19.4105 91.0469 19.5928C91.0469 19.7295 91.0697 19.8525 91.1152 19.9619C91.1654 20.0667 91.252 20.1647 91.375 20.2559C91.498 20.3424 91.6712 20.4245 91.8945 20.502C92.1178 20.5794 92.4027 20.6569 92.749 20.7344C93.3551 20.8711 93.8542 21.0352 94.2461 21.2266C94.638 21.418 94.9297 21.6527 95.1211 21.9307C95.3125 22.2087 95.4082 22.5459 95.4082 22.9424C95.4082 23.266 95.3398 23.5622 95.2031 23.8311C95.071 24.0999 94.8773 24.3324 94.6221 24.5283C94.3714 24.7197 94.0706 24.8701 93.7197 24.9795C93.3734 25.0843 92.9837 25.1367 92.5508 25.1367C91.8991 25.1367 91.3477 25.0205 90.8965 24.7881C90.4453 24.5557 90.1035 24.2549 89.8711 23.8857C89.6387 23.5166 89.5225 23.127 89.5225 22.7168H90.7939C90.8122 23.0632 90.9124 23.3389 91.0947 23.5439C91.277 23.7445 91.5003 23.888 91.7646 23.9746C92.029 24.0566 92.291 24.0977 92.5508 24.0977C92.8971 24.0977 93.1865 24.0521 93.4189 23.9609C93.6559 23.8698 93.8359 23.7445 93.959 23.585C94.082 23.4255 94.1436 23.2432 94.1436 23.0381Z" fill="white"/>
</g>
<defs>
<clipPath id="clip0_56_65">
<rect width="166" height="51" fill="white"/>
</clipPath>
</defs>
</svg>
