<svg width="43" height="43" viewBox="0 0 43 43" fill="none" xmlns="http://www.w3.org/2000/svg">
<g filter="url(#filter0_d_75_3358)">
<rect x="4" y="4" width="35" height="35" rx="5" fill="white"/>
<g clip-path="url(#clip0_75_3358)">
<path d="M20.7234 9C18.8234 9 14.1234 9.2 11.6234 11.6C9.82336 13.3 9.12336 15.9 9.02336 19C8.82336 23.9 9.92336 27 11.7234 28.6C12.1234 28.9 13.1234 29.7 15.0234 30.3V32.8C15.0234 32.8 15.0234 33.8 15.6234 34C15.7234 34 15.8234 34.1 15.9234 34.1C16.5234 34.1 17.0234 33.4 17.7234 32.7C18.3234 32 18.8234 31.5 19.1234 31H21.3234C23.2234 31 27.9234 30.8 30.4234 28.4C32.2234 26.6 32.9234 24 32.9234 20.7C33.0234 20.2 33.0234 19.6 33.0234 19C32.9234 15.3 31.8234 12.8 30.3234 11.4C29.7234 10.9 27.1234 9 21.5234 9H20.7234ZM20.5234 10.9H21.4234C26.7234 10.9 28.7234 12.6 28.9234 12.8C30.1234 13.8 30.8234 16 30.9234 18.9V19.3C31.0234 19.9 31.0234 20.4 31.0234 20.7C30.9234 23.7 30.3234 25.7 29.1234 27C27.0234 28.9 22.6234 29 21.4234 29H19.5234L17.9234 30.8L16.9234 31.9L16.7234 32.2C16.5234 32.4 16.2234 32.8 16.0234 32.9V28.4C14.0234 27.9 13.2234 27.2 13.0234 27C11.6234 25.8 10.8234 22.9 11.0234 19V18C11.2234 15.6 11.8234 14 12.8234 12.9C14.9234 11 19.3234 10.9 20.5234 10.9ZM20.4234 13.1C19.9234 13.1 19.9234 13.8 20.4234 13.8C24.1234 13.8 27.3234 16.3 27.3234 21C27.3234 21.5 28.0234 21.5 28.0234 21C28.0234 15.9 24.6234 13 20.4234 13.1ZM16.4604 14.025C16.2338 13.9978 16.0056 14.0603 15.8244 14.199C14.8244 14.699 13.8234 15.701 14.1234 16.801C14.1234 16.801 14.3234 17.7 15.4234 19.6C16.0234 20.5 16.5234 21.3 17.0234 21.9C17.5234 22.6 18.3234 23.4 19.1234 24C20.7234 25.3 23.2234 26.6 24.3234 26.9C25.3234 27.2 26.4234 26.2 26.9234 25.2C27.1234 24.8 27.0234 24.3 26.6234 24C26.0234 23.4 25.0234 22.7 24.3234 22.3C23.8234 22 23.2234 22.2 23.0234 22.5L22.5234 23.1C22.3234 23.4 21.8234 23.4 21.8234 23.4C18.5234 22.5 17.6234 19.1 17.6234 19.1C17.6234 19.1 17.6234 18.7 17.9234 18.4L18.5234 17.9C18.8234 17.7 19.0234 17.1 18.7234 16.6C18.5234 16.3 18.2234 15.7 17.9234 15.4C17.6234 15 17.0234 14.3 17.0234 14.3C16.8716 14.1481 16.6735 14.0513 16.4604 14.025ZM21.1234 15.1C20.6234 15 20.5234 15.8 21.0234 15.8C23.8234 16 25.4234 17.9 25.3234 20.3C25.2234 20.8 26.0234 20.8 26.0234 20.3C26.1234 17.5 24.3234 15.2 21.1234 15.1ZM21.4234 17C20.9234 16.9 20.9234 17.7 21.4234 17.7C22.6234 17.7 23.2234 18.4 23.2234 19.6C23.3234 20.1 24.0234 20.1 24.0234 19.6C23.9234 18 23.0234 17 21.4234 17Z" fill="#7360F2"/>
</g>
</g>
<defs>
<filter id="filter0_d_75_3358" x="0" y="0" width="43" height="43" filterUnits="userSpaceOnUse" color-interpolation-filters="sRGB">
<feFlood flood-opacity="0" result="BackgroundImageFix"/>
<feColorMatrix in="SourceAlpha" type="matrix" values="0 0 0 0 0 0 0 0 0 0 0 0 0 0 0 0 0 0 127 0" result="hardAlpha"/>
<feOffset/>
<feGaussianBlur stdDeviation="2"/>
<feComposite in2="hardAlpha" operator="out"/>
<feColorMatrix type="matrix" values="0 0 0 0 0 0 0 0 0 0 0 0 0 0 0 0 0 0 0.25 0"/>
<feBlend mode="normal" in2="BackgroundImageFix" result="effect1_dropShadow_75_3358"/>
<feBlend mode="normal" in="SourceGraphic" in2="effect1_dropShadow_75_3358" result="shape"/>
</filter>
<clipPath id="clip0_75_3358">
<rect width="24" height="25" fill="white" transform="translate(9 9)"/>
</clipPath>
</defs>
</svg>
