<svg width="43" height="43" viewBox="0 0 43 43" fill="none" xmlns="http://www.w3.org/2000/svg">
<g filter="url(#filter0_d_75_3374)">
<rect x="4" y="4" width="35" height="35" rx="5" fill="white"/>
<path d="M21.52 10C15.1576 10 10 15.1576 10 21.52C10 27.8824 15.1576 33.04 21.52 33.04C27.8824 33.04 33.04 27.8824 33.04 21.52C33.04 15.1576 27.8824 10 21.52 10ZM25.9504 22.9972C25.9504 22.9972 26.9692 24.0028 27.22 24.4696C27.2272 24.4792 27.2308 24.4888 27.2332 24.4936C27.3352 24.6652 27.3592 24.7984 27.3088 24.898C27.2248 25.0636 26.9368 25.1452 26.8384 25.1524H25.0384C24.9136 25.1524 24.652 25.12 24.3352 24.9016C24.0916 24.7312 23.8516 24.4516 23.6176 24.1792C23.2684 23.7736 22.966 23.4232 22.6612 23.4232C22.6225 23.4231 22.584 23.4292 22.5472 23.4412C22.3168 23.5156 22.0216 23.8444 22.0216 24.7204C22.0216 24.994 21.8056 25.1512 21.6532 25.1512H20.8288C20.548 25.1512 19.0852 25.0528 17.7892 23.686C16.2028 22.012 14.7748 18.6544 14.7628 18.6232C14.6728 18.406 14.8588 18.2896 15.0616 18.2896H16.8796C17.122 18.2896 17.2012 18.4372 17.2564 18.568C17.3212 18.7204 17.5588 19.3264 17.9488 20.008C18.5812 21.1192 18.9688 21.5704 19.2796 21.5704C19.3379 21.5697 19.3951 21.5549 19.4464 21.5272C19.852 21.3016 19.7764 19.8556 19.7584 19.5556C19.7584 19.4992 19.7572 18.9088 19.5496 18.6256C19.4008 18.4204 19.1476 18.3424 18.994 18.3136C19.0562 18.2278 19.1381 18.1583 19.2328 18.1108C19.5112 17.9716 20.0128 17.9512 20.5108 17.9512H20.788C21.328 17.9584 21.4672 17.9932 21.6628 18.0424C22.0588 18.1372 22.0672 18.3928 22.0324 19.2676C22.0216 19.516 22.0108 19.7968 22.0108 20.128C22.0108 20.2 22.0072 20.2768 22.0072 20.3584C21.9952 20.8036 21.9808 21.3088 22.2952 21.5164C22.3362 21.5421 22.3836 21.5558 22.432 21.556C22.5412 21.556 22.87 21.556 23.7604 20.0284C24.035 19.5367 24.2736 19.0258 24.4744 18.4996C24.4924 18.4684 24.5452 18.3724 24.6076 18.3352C24.6537 18.3117 24.7047 18.2998 24.7564 18.3004H26.8936C27.1264 18.3004 27.286 18.3352 27.316 18.4252C27.3688 18.568 27.3064 19.0036 26.3308 20.3248L25.8952 20.8996C25.0108 22.0588 25.0108 22.1176 25.9504 22.9972Z" fill="#4C75A3"/>
</g>
<defs>
<filter id="filter0_d_75_3374" x="0" y="0" width="43" height="43" filterUnits="userSpaceOnUse" color-interpolation-filters="sRGB">
<feFlood flood-opacity="0" result="BackgroundImageFix"/>
<feColorMatrix in="SourceAlpha" type="matrix" values="0 0 0 0 0 0 0 0 0 0 0 0 0 0 0 0 0 0 127 0" result="hardAlpha"/>
<feOffset/>
<feGaussianBlur stdDeviation="2"/>
<feComposite in2="hardAlpha" operator="out"/>
<feColorMatrix type="matrix" values="0 0 0 0 0 0 0 0 0 0 0 0 0 0 0 0 0 0 0.25 0"/>
<feBlend mode="normal" in2="BackgroundImageFix" result="effect1_dropShadow_75_3374"/>
<feBlend mode="normal" in="SourceGraphic" in2="effect1_dropShadow_75_3374" result="shape"/>
</filter>
</defs>
</svg>
