<svg width="43" height="43" viewBox="0 0 43 43" fill="none" xmlns="http://www.w3.org/2000/svg">
<g filter="url(#filter0_d_75_3368)">
<rect x="4" y="4" width="35" height="35" rx="5" fill="white"/>
<path d="M20.9968 17.9981C18.7933 17.9981 16.9951 19.7963 16.9951 21.9998C16.9951 24.2032 18.7933 26.0014 20.9968 26.0014C23.2002 26.0014 24.9984 24.2032 24.9984 21.9998C24.9984 19.7963 23.2002 17.9981 20.9968 17.9981ZM32.9987 21.9998C32.9987 20.3427 33.0137 18.7006 32.9206 17.0465C32.8275 15.1253 32.3893 13.4201 30.9843 12.0152C29.5764 10.6073 27.8743 10.172 25.953 10.0789C24.2959 9.98588 22.6539 10.0009 20.9998 10.0009C19.3427 10.0009 17.7006 9.98588 16.0465 10.0789C14.1253 10.172 12.4201 10.6103 11.0152 12.0152C9.60729 13.4231 9.17201 15.1253 9.07894 17.0465C8.98588 18.7036 9.00089 20.3457 9.00089 21.9998C9.00089 23.6539 8.98588 25.2989 9.07894 26.953C9.17201 28.8743 9.61029 30.5794 11.0152 31.9843C12.4231 33.3923 14.1253 33.8275 16.0465 33.9206C17.7036 34.0137 19.3457 33.9987 20.9998 33.9987C22.6569 33.9987 24.2989 34.0137 25.953 33.9206C27.8743 33.8275 29.5794 33.3893 30.9843 31.9843C32.3923 30.5764 32.8275 28.8743 32.9206 26.953C33.0167 25.2989 32.9987 23.6569 32.9987 21.9998ZM20.9968 28.1568C17.5895 28.1568 14.8397 25.407 14.8397 21.9998C14.8397 18.5925 17.5895 15.8427 20.9968 15.8427C24.404 15.8427 27.1538 18.5925 27.1538 21.9998C27.1538 25.407 24.404 28.1568 20.9968 28.1568ZM27.406 17.0285C26.6105 17.0285 25.968 16.3861 25.968 15.5906C25.968 14.795 26.6105 14.1526 27.406 14.1526C28.2015 14.1526 28.8439 14.795 28.8439 15.5906C28.8442 15.7795 28.8071 15.9666 28.735 16.1411C28.6628 16.3157 28.5569 16.4743 28.4233 16.6079C28.2897 16.7414 28.1311 16.8474 27.9565 16.9195C27.782 16.9917 27.5949 17.0287 27.406 17.0285Z" fill="url(#paint0_linear_75_3368)"/>
</g>
<defs>
<filter id="filter0_d_75_3368" x="0" y="0" width="43" height="43" filterUnits="userSpaceOnUse" color-interpolation-filters="sRGB">
<feFlood flood-opacity="0" result="BackgroundImageFix"/>
<feColorMatrix in="SourceAlpha" type="matrix" values="0 0 0 0 0 0 0 0 0 0 0 0 0 0 0 0 0 0 127 0" result="hardAlpha"/>
<feOffset/>
<feGaussianBlur stdDeviation="2"/>
<feComposite in2="hardAlpha" operator="out"/>
<feColorMatrix type="matrix" values="0 0 0 0 0 0 0 0 0 0 0 0 0 0 0 0 0 0 0.25 0"/>
<feBlend mode="normal" in2="BackgroundImageFix" result="effect1_dropShadow_75_3368"/>
<feBlend mode="normal" in="SourceGraphic" in2="effect1_dropShadow_75_3368" result="shape"/>
</filter>
<linearGradient id="paint0_linear_75_3368" x1="10.5" y1="11.5" x2="30.5" y2="34" gradientUnits="userSpaceOnUse">
<stop stop-color="#405DE6"/>
<stop offset="0.140625" stop-color="#5851D8"/>
<stop offset="0.286458" stop-color="#833AB4"/>
<stop offset="0.442708" stop-color="#C13584"/>
<stop offset="0.588542" stop-color="#E1306C"/>
<stop offset="0.723958" stop-color="#FD1D1D"/>
<stop offset="0.859375" stop-color="#F77737"/>
<stop offset="0.994792" stop-color="#FCAF45"/>
</linearGradient>
</defs>
</svg>
