<svg width="43" height="43" viewBox="0 0 43 43" fill="none" xmlns="http://www.w3.org/2000/svg">
<g filter="url(#filter0_d_75_3355)">
<rect x="4" y="4" width="35" height="35" rx="5" fill="white"/>
<g clip-path="url(#clip0_75_3355)">
<path fill-rule="evenodd" clip-rule="evenodd" d="M27.415 23.382C27.117 23.233 25.656 22.515 25.384 22.415C25.112 22.316 24.914 22.267 24.715 22.565C24.517 22.861 23.948 23.531 23.775 23.729C23.601 23.928 23.428 23.952 23.131 23.804C22.834 23.654 21.876 23.341 20.741 22.329C19.858 21.541 19.261 20.568 19.088 20.27C18.915 19.973 19.069 19.812 19.218 19.664C19.352 19.531 19.515 19.317 19.664 19.144C19.813 18.97 19.862 18.846 19.961 18.647C20.061 18.449 20.011 18.276 19.936 18.127C19.862 17.978 19.268 16.515 19.02 15.92C18.779 15.341 18.534 15.42 18.352 15.41C18.178 15.402 17.98 15.4 17.782 15.4C17.584 15.4 17.262 15.474 16.99 15.772C16.717 16.069 15.95 16.788 15.95 18.251C15.95 19.713 17.014 21.126 17.163 21.325C17.312 21.523 19.258 24.525 22.239 25.812C22.949 26.118 23.502 26.301 23.933 26.437C24.645 26.664 25.293 26.632 25.805 26.555C26.375 26.47 27.563 25.836 27.811 25.142C28.058 24.448 28.058 23.853 27.984 23.729C27.91 23.605 27.712 23.531 27.414 23.382H27.415ZM21.993 30.785H21.989C20.2184 30.7854 18.4804 30.3094 16.957 29.407L16.597 29.193L12.855 30.175L13.854 26.527L13.619 26.153C12.6291 24.5774 12.1053 22.7538 12.108 20.893C12.11 15.443 16.544 11.009 21.997 11.009C24.637 11.009 27.119 12.039 28.985 13.907C29.9054 14.8236 30.6349 15.9136 31.1313 17.1139C31.6277 18.3143 31.8811 19.6011 31.877 20.9C31.875 26.35 27.441 30.785 21.993 30.785ZM30.405 12.488C29.3032 11.379 27.9922 10.4996 26.5481 9.90084C25.1039 9.3021 23.5553 8.99592 21.992 9.00004C15.438 9.00004 10.102 14.335 10.1 20.892C10.097 22.9788 10.6444 25.0294 11.687 26.837L10 33L16.304 31.346C18.0479 32.2962 20.0021 32.794 21.988 32.794H21.993C28.547 32.794 33.883 27.459 33.885 20.901C33.8898 19.3383 33.5848 17.7901 32.9874 16.3461C32.3901 14.902 31.5124 13.5907 30.405 12.488Z" fill="#43D854"/>
</g>
</g>
<defs>
<filter id="filter0_d_75_3355" x="0" y="0" width="43" height="43" filterUnits="userSpaceOnUse" color-interpolation-filters="sRGB">
<feFlood flood-opacity="0" result="BackgroundImageFix"/>
<feColorMatrix in="SourceAlpha" type="matrix" values="0 0 0 0 0 0 0 0 0 0 0 0 0 0 0 0 0 0 127 0" result="hardAlpha"/>
<feOffset/>
<feGaussianBlur stdDeviation="2"/>
<feComposite in2="hardAlpha" operator="out"/>
<feColorMatrix type="matrix" values="0 0 0 0 0 0 0 0 0 0 0 0 0 0 0 0 0 0 0.25 0"/>
<feBlend mode="normal" in2="BackgroundImageFix" result="effect1_dropShadow_75_3355"/>
<feBlend mode="normal" in="SourceGraphic" in2="effect1_dropShadow_75_3355" result="shape"/>
</filter>
<clipPath id="clip0_75_3355">
<rect width="24" height="24" fill="white" transform="translate(10 9)"/>
</clipPath>
</defs>
</svg>
