<svg width="30" height="31" viewBox="0 0 30 31" fill="none" xmlns="http://www.w3.org/2000/svg">
<g clip-path="url(#clip0_64_126)">
<path d="M15 0.5C6.71572 0.5 0 7.21572 0 15.5C0 23.7843 6.71572 30.5 15 30.5C23.2843 30.5 30 23.7843 30 15.5C30 7.21572 23.2843 0.5 15 0.5ZM9.60938 6.45825C9.91843 6.44003 10.1978 6.62475 10.4095 6.95263L12.4603 10.8418C12.6763 11.3026 12.5535 11.7961 12.2315 12.1253L11.2921 13.0647C11.2341 13.1441 11.196 13.2336 11.1951 13.332C11.5553 14.7264 12.648 16.0126 13.6121 16.8971C14.5762 17.7816 15.6123 18.9791 16.9574 19.2628C17.1237 19.3092 17.3273 19.3258 17.4463 19.2152L18.5376 18.1038C18.9143 17.8183 19.4593 17.6799 19.8615 17.9134H19.8798L23.5803 20.0978C24.1235 20.4383 24.1798 21.0964 23.7908 21.4967L21.2421 24.0254C20.8657 24.4114 20.3656 24.5412 19.8798 24.5417C17.7311 24.4774 15.7009 23.4228 14.0333 22.339C11.296 20.3477 8.78518 17.8779 7.20888 14.8939C6.60433 13.6427 5.89415 12.0462 5.96193 10.6496C5.96798 10.1242 6.11012 9.60945 6.48012 9.2708L9.02895 6.72197C9.2275 6.55303 9.42393 6.4692 9.60938 6.45825Z" fill="#0042FF"/>
</g>
<defs>
<clipPath id="clip0_64_126">
<rect width="30" height="30" fill="white" transform="translate(0 0.5)"/>
</clipPath>
</defs>
</svg>
