<svg width="44" height="44" viewBox="0 0 44 44" fill="none" xmlns="http://www.w3.org/2000/svg">
<path d="M12.4025 20.861L21.3436 14.1982L22.5387 15.8018L16.0155 20.6629H32V22.6629H15.9847L22.5436 27.6136L21.3387 29.2099L12.3975 22.4611C12.1463 22.2714 11.999 21.9746 12 21.6598C12.001 21.3451 12.1501 21.0491 12.4025 20.861Z" fill="#3D6AEB"/>
<path fill-rule="evenodd" clip-rule="evenodd" d="M0 22C0 34.1503 9.84974 44 22 44C34.1503 44 44 34.1503 44 22C44 9.84974 34.1503 0 22 0C9.84974 0 0 9.84974 0 22ZM2 22C2 33.0457 10.9543 42 22 42C33.0457 42 42 33.0457 42 22C42 10.9543 33.0457 2 22 2C10.9543 2 2 10.9543 2 22Z" fill="#3D6AEB"/>
</svg>
